<svg xmlns="http://www.w3.org/2000/svg" width="512" height="384" viewBox="0 0 512 384"><g transform="translate(0 -64)"><path d="M448,64H64A64,64,0,0,0,0,128V384a64,64,0,0,0,64,64H448a64,64,0,0,0,64-64V128A64,64,0,0,0,448,64ZM342.656,234.781,478.125,118.687A30.837,30.837,0,0,1,480,128V384c0,2.219-.844,4.188-1.281,6.281ZM448,96c2.125,0,4,.813,6,1.219L256,266.938,58,97.219C60,96.813,61.875,96,64,96ZM33.266,390.25C32.828,388.156,32,386.219,32,384V128a30.851,30.851,0,0,1,1.891-9.313L169.313,234.75ZM64,416a30.787,30.787,0,0,1-9.125-1.844l138.75-158.563,51.969,44.531a15.908,15.908,0,0,0,20.812,0l51.969-44.531,138.75,158.563A30.612,30.612,0,0,1,448,416Z" fill="#f31c0c"/></g></svg>