<svg xmlns="http://www.w3.org/2000/svg" width="377" height="90.9" viewBox="0 0 377 90.9"><path d="M220.163,90.9c7.294,0,13.271-3.4,17.526-9.7l.81,8.4h14.385V0h-15.5V32.4a19.264,19.264,0,0,0-16.513-8.9c-14.993,0-25.529,12.5-25.529,34.2,0,21.3,10.232,33.2,24.819,33.2Zm95.631-5.6V72.8a40.465,40.465,0,0,1-20.565,6.1c-11.346,0-15.7-5.3-16.31-16.1H316.4V54.6c0-22.6-10.029-31.1-25.63-31.1-18.944,0-27.96,14.3-27.96,33.9,0,22.6,11.245,33.5,31.1,33.5,9.928,0,17.222-2.5,21.882-5.6ZM148.338,43.1a17.021,17.021,0,0,1,13.068-6.4c5.47,0,7.9,2.3,7.9,7.2V89.7h15.5V42.3c0-12.9-5.167-18.6-17.931-18.6-9.219,0-14.79,3.4-17.931,6.4h-.81l-.405-5.4h-15.2V89.6h15.5Zm-28.264,2.3c0-15.7-8.1-21.7-24.617-21.7a40.665,40.665,0,0,0-23.1,7.6V44.6c4.964-4,12.562-8.6,21.274-8.6,7.4,0,10.84,2.6,10.84,9.6v4.1h-2.431C78.236,49.7,67.7,57.3,67.7,70.9c0,12.5,8.1,19.7,20.16,19.7,9.117,0,13.068-3,16.107-6.1h.608a18.93,18.93,0,0,0,1.114,5.1h15.2c-.507-5.3-.81-10.6-.81-15.9ZM363.508,89.7h17.526L359.557,56.3,378.1,24.9H362.6L351.351,44.5,338.79,24.9H321.163L341.018,56,320.352,89.8h15.8l13.17-21.9ZM224.823,35.6c8.408,0,12.562,6.6,12.562,21.5,0,15.1-4.457,21.7-13.17,21.7-8.51,0-12.663-6.4-12.663-21.2-.1-15.3,4.356-22,13.271-22Zm65.746,0c7.7,0,10.029,6.3,10.029,14.4v1.3H278.919C279.223,41,283.072,35.6,290.569,35.6ZM104.575,74.2c-1.925,2.9-5.673,5.1-11.143,5.1-6.483,0-9.826-3.7-9.826-9.4,0-7.5,5.369-10.1,18.64-10.1h2.229V74.2Z" transform="translate(-4.033)" fill="#fc3f1d"/><path d="M45,74.4V89.6H29.4V64L0,0H16.3L39.2,50C43.6,59.6,45,62.9,45,74.4ZM74.3,0,55.2,43.3H39.3L58.5,0Z" fill="#fc3f1d"/></svg>