<svg xmlns="http://www.w3.org/2000/svg" xmlns:xlink="http://www.w3.org/1999/xlink" width="128" height="112" viewBox="0 0 128 112"><defs><clipPath id="a"><path d="M124,12H12a8.024,8.024,0,0,0-8,8V94a8.024,8.024,0,0,0,8,8H51l-2,10a6.018,6.018,0,0,0-6,6v6H93v-6a6.018,6.018,0,0,0-6-6l-2-10h39a8.024,8.024,0,0,0,8-8V20A8.024,8.024,0,0,0,124,12Z" fill="#e81616" stroke="#eaf2f1" stroke-width="3"/></clipPath><clipPath id="b"><path d="M83,112H53l2-10H81Z" transform="translate(-48 -102)" fill="#e81616" stroke="#eaf2f1" stroke-width="3"/></clipPath><clipPath id="c"><path d="M124,98H12a4.012,4.012,0,0,1-4-4V20a4.012,4.012,0,0,1,4-4H124a4.012,4.012,0,0,1,4,4V94A4.012,4.012,0,0,1,124,98Z" transform="translate(-4 -96)" fill="#e81616" stroke="#eaf2f1" stroke-width="3"/></clipPath><clipPath id="d"><path d="M47,120v-2a2.006,2.006,0,0,1,2-2H87a2.006,2.006,0,0,1,2,2v2Z" transform="translate(-43 -115)" fill="#e81616" stroke="#eaf2f1" stroke-width="3"/></clipPath></defs><g transform="translate(-4 -12)"><g clip-path="url(#a)"><path d="M87,112H49l2-10H85Z" fill="#e81616" stroke="#eaf2f1" stroke-width="3"/><path d="M83,112H53l2-10H81Z" fill="#e81616" stroke="#eaf2f1" stroke-width="3"/><g transform="translate(48 102)" clip-path="url(#b)"><rect width="40" height="4" fill="#e81616" stroke="#eaf2f1" stroke-width="3" opacity="0.24"/></g><rect width="2" height="6" transform="translate(72 106)" fill="#e81616" stroke="#eaf2f1" stroke-width="3" opacity="0.8"/><rect width="1" height="6" transform="translate(76 106)" fill="#e81616" stroke="#eaf2f1" stroke-width="3" opacity="0.8"/><path d="M12,102a8.024,8.024,0,0,1-8-8V20a8.024,8.024,0,0,1,8-8H124a8.024,8.024,0,0,1,8,8V94a8.024,8.024,0,0,1-8,8Z" fill="#e81616" stroke="#eaf2f1" stroke-width="3"/><path d="M124,98H12a4.012,4.012,0,0,1-4-4V20a4.012,4.012,0,0,1,4-4H124a4.012,4.012,0,0,1,4,4V94A4.012,4.012,0,0,1,124,98Z" fill="#e81616" stroke="#eaf2f1" stroke-width="3"/><path d="M8,84V20a4.012,4.012,0,0,1,4-4H124a4.012,4.012,0,0,1,4,4V84Z" fill="#e81616" stroke="#eaf2f1" stroke-width="3"/><rect width="112" height="64" transform="translate(12 20)" fill="#e81616" stroke="#eaf2f1" stroke-width="3"/><circle cx="3" cy="3" r="3" transform="translate(65 88)" fill="#e81616" stroke="#eaf2f1" stroke-width="3"/><g opacity="0.2"><path d="M49,80H37l64-64h12Z" fill="#e81616" stroke="#eaf2f1" stroke-width="3"/><path d="M27,80H23L87,16h4Z" fill="#e81616" stroke="#eaf2f1" stroke-width="3"/></g><g transform="translate(4 96)" clip-path="url(#c)"><rect width="128" height="6" fill="#e81616" stroke="#eaf2f1" stroke-width="3" opacity="0.24"/></g><rect width="2" height="12" transform="translate(83 84)" fill="#e81616" stroke="#eaf2f1" stroke-width="3" opacity="0.4"/><rect width="1" height="12" transform="translate(87 84)" fill="#e81616" stroke="#eaf2f1" stroke-width="3" opacity="0.4"/><path d="M43,124v-6a6.018,6.018,0,0,1,6-6H87a6.018,6.018,0,0,1,6,6v6Z" fill="#e81616" stroke="#eaf2f1" stroke-width="3"/><path d="M47,120v-2a2.006,2.006,0,0,1,2-2H87a2.006,2.006,0,0,1,2,2v2Z" fill="#e81616" stroke="#eaf2f1" stroke-width="3"/><g transform="translate(43 115)" clip-path="url(#d)"><rect width="48" height="3" fill="#e81616" stroke="#eaf2f1" stroke-width="3" opacity="0.8"/></g><rect width="2" height="2" transform="translate(76 118)" fill="#e81616" stroke="#eaf2f1" stroke-width="3" opacity="0.8"/><rect width="1" height="2" transform="translate(80 118)" fill="#e81616" stroke="#eaf2f1" stroke-width="3" opacity="0.8"/></g></g></svg>